<svg xmlns="http://www.w3.org/2000/svg" width="132.035" height="20.017" viewBox="0 0 132.035 20.017">
    <defs>
        <style>
            .cls-3{fill:#272560}.cls-4{fill:#00b6bd}
        </style>
    </defs>
    <g id="Logo_x-large_primary-money" data-name="Logo/x-large/primary-money" transform="translate(-31 -32)">
        <g id="Logo_SubPay" data-name="Logo/SubPay" transform="translate(31 32)">
            <g id="Logo_item_zip_with-divider" data-name="Logo/item/zip/with-divider">
                <g id="Logo_item_zip_no-divider" data-name="Logo/item/zip/no-divider" transform="translate(0 .103)">
                    <g id="Asset-1">
                        <g id="Logo_icon_colour-primary" data-name="Logo/icon/colour-primary">
                            <path id="Shape" fill="#f15b41" d="M31.837 8.306L27.356 12.3h-11.1a4.265 4.265 0 0 0-2.811 1.05l5.6-4.986.086-.075 7.013-6.252a4.29 4.29 0 0 1 4.165-.874A4.2 4.2 0 0 1 31.837 8.3z" transform="translate(-11.999 -.953)"/>
                            <ellipse id="Oval" cx="4.258" cy="4.215" fill="#f99d1d" rx="4.258" ry="4.215" transform="translate(0 .005)"/>
                            <path id="Shape-2" d="M4.263 106.36a4.265 4.265 0 0 0-2.811 1.05l-.036.032A4.185 4.185 0 0 0 1.1 113.4a4.288 4.288 0 0 0 6.013.315l8.253-7.349z" class="cls-3" data-name="Shape" transform="translate(-.004 -95.016)"/>
                            <path id="Shape-3" d="M50.6 106.354l-8.254 7.346a4.265 4.265 0 0 1-2.846 1.08h12.733a4.126 4.126 0 0 0 4.19-4.215 4.207 4.207 0 0 0-4.19-4.215z" class="cls-4" data-name="Shape" transform="translate(-35.248 -95.007)"/>
                        </g>
                        <g id="Logo_item_zip_text_primary" data-name="Logo/item/zip/text/primary" transform="translate(25.94 .019)">
                            <path id="Shape-4" d="M1.54 53.713a1.236 1.236 0 0 1-.939-.38 1.325 1.325 0 0 1-.354-.944 2.033 2.033 0 0 1 .255-1 3.874 3.874 0 0 1 .544-.763L6.3 44.744H1.72a1 1 0 0 1-.936-.45 1.9 1.9 0 0 1-.244-.984 1.525 1.525 0 0 1 .275-.931.96.96 0 0 1 .819-.39h8.1a1.261 1.261 0 0 1 .924.342 1.294 1.294 0 0 1 .342.959 1.987 1.987 0 0 1-.2.922 3.133 3.133 0 0 1-.5.689l-5.466 6.056h5.187a.983.983 0 0 1 .8.377 1.475 1.475 0 0 1 .291.946 1.873 1.873 0 0 1-.247 1.011 1.021 1.021 0 0 1-.934.424z" class="cls-3" data-name="Shape" transform="translate(-.246 -37.483)"/>
                            <path id="Shape-5" d="M114.665 16.515c-1.441 0-1.741-.732-1.741-1.345V6.216a1.515 1.515 0 0 1 .425-1.126 1.856 1.856 0 0 1 1.34-.421 1.9 1.9 0 0 1 1.2.343 1.3 1.3 0 0 1 .448 1.07v9.04a1.241 1.241 0 0 1-.466 1.076 2.009 2.009 0 0 1-1.206.317zm0-12.807a1.95 1.95 0 0 1-1.37-.483 1.7 1.7 0 0 1-.53-1.306 1.712 1.712 0 0 1 .528-1.283 1.9 1.9 0 0 1 1.372-.506 2.157 2.157 0 0 1 1.289.43 1.581 1.581 0 0 1 .61 1.362 1.7 1.7 0 0 1-.53 1.308 1.945 1.945 0 0 1-1.37.481z" class="cls-3" data-name="Shape" transform="translate(-100.655 -.13)"/>
                            <path id="Shape-6" d="M167.375 54.143c-1.347 0-1.632-.744-1.632-1.368V40.11a1.433 1.433 0 0 1 .427-1.061 1.854 1.854 0 0 1 1.34-.421 2.389 2.389 0 0 1 1.088.25 1.075 1.075 0 0 1 .544 1.049q.109-.124.234-.254a4.065 4.065 0 0 1 .762-.6 4.169 4.169 0 0 1 2.249-.62 4.934 4.934 0 0 1 2.2.471 4.484 4.484 0 0 1 1.6 1.309 5.725 5.725 0 0 1 .947 1.974 9.373 9.373 0 0 1 .309 2.463 8.45 8.45 0 0 1-.355 2.5 5.861 5.861 0 0 1-1.038 1.985 4.78 4.78 0 0 1-1.682 1.308 5.281 5.281 0 0 1-2.268.47 4.7 4.7 0 0 1-1.545-.215 4.285 4.285 0 0 1-1.013-.5 2.794 2.794 0 0 1-.468-.395v2.884a1.361 1.361 0 0 1-.411 1.1 1.976 1.976 0 0 1-1.288.336zm4.141-12.822a2.181 2.181 0 0 0-1.065.249 2.315 2.315 0 0 0-.773.7 3.318 3.318 0 0 0-.484 1.076 5.418 5.418 0 0 0-.164 1.366 4.248 4.248 0 0 0 .653 2.5 2.085 2.085 0 0 0 1.838.9 2 2 0 0 0 1.813-.935 4.478 4.478 0 0 0 .629-2.459 5.418 5.418 0 0 0-.17-1.361 3.474 3.474 0 0 0-.474-1.076 2.212 2.212 0 0 0-.762-.7 2.132 2.132 0 0 0-1.041-.259z" class="cls-3" data-name="Shape" transform="translate(-147.932 -34.327)"/>
                        </g>
                    </g>
                </g>
                <g id="Logo_item_divider_colour" data-name="Logo/item/divider/colour" transform="translate(58.76)">
                    <path id="Shape-7" d="M.538 19.758c0 .18-.089.259-.269.259S0 19.938 0 19.758V.259C0 .079.089 0 .269 0s.269.079.269.259z" class="cls-4" data-name="Shape"/>
                </g>
            </g>
            <g id="Logo_item_sub_money" data-name="Logo/item/sub/money" transform="translate(63.603 4.52)">
                <path id="money" fill="#272560" fill-rule="evenodd" d="M12.713 41a4.156 4.156 0 0 1 2.818.9 3.457 3.457 0 0 1 1.037 2.759v6.723q0 .74-.924.74-.992 0-.992-.74v-6.154a5.292 5.292 0 0 0-.1-1.078 1.847 1.847 0 0 0-.372-.814 1.747 1.747 0 0 0-.733-.507 3.3 3.3 0 0 0-1.183-.18 2.638 2.638 0 0 0-1.465.381 2.806 2.806 0 0 0-.926.97 4.381 4.381 0 0 0-.485 1.332 7.5 7.5 0 0 0-.147 1.459v4.588q0 .74-.924.74-.992 0-.992-.74v-6.151a5.292 5.292 0 0 0-.1-1.078 1.847 1.847 0 0 0-.372-.814 1.747 1.747 0 0 0-.733-.507 3.3 3.3 0 0 0-1.183-.18 2.7 2.7 0 0 0-1.465.37 2.717 2.717 0 0 0-.924.962 4.381 4.381 0 0 0-.485 1.332 7.5 7.5 0 0 0-.147 1.459v4.5a.756.756 0 0 1-.259.666 1.229 1.229 0 0 1-.71.18 1.175 1.175 0 0 1-.7-.18.773.773 0 0 1-.247-.663v-9.26a.751.751 0 0 1 .225-.634 1.121 1.121 0 0 1 .675-.17 1.175 1.175 0 0 1 .687.169.732.732 0 0 1 .237.634v.994a2.559 2.559 0 0 1 .18-.381 2.611 2.611 0 0 1 .586-.7 3.894 3.894 0 0 1 1.093-.645A4.52 4.52 0 0 1 5.41 41a4.33 4.33 0 0 1 2.243.518A2.988 2.988 0 0 1 8.9 42.924a3.469 3.469 0 0 1 1.465-1.4A4.916 4.916 0 0 1 12.713 41zm8.7 5.645a4.633 4.633 0 0 0 .9 3.023 3.16 3.16 0 0 0 2.592 1.1 3.16 3.16 0 0 0 2.592-1.1 4.633 4.633 0 0 0 .9-3.023 4.545 4.545 0 0 0-.9-3 3.189 3.189 0 0 0-2.592-1.078 3.189 3.189 0 0 0-2.592 1.078 4.545 4.545 0 0 0-.9 3zm-2.029 0a6.71 6.71 0 0 1 .394-2.378 4.912 4.912 0 0 1 1.127-1.776 4.862 4.862 0 0 1 1.747-1.11 6.866 6.866 0 0 1 4.508 0 4.862 4.862 0 0 1 1.747 1.11 4.912 4.912 0 0 1 1.127 1.776 6.71 6.71 0 0 1 .394 2.378 6.8 6.8 0 0 1-.394 2.389 4.9 4.9 0 0 1-1.127 1.787 4.983 4.983 0 0 1-1.747 1.121 6.69 6.69 0 0 1-4.508 0 4.983 4.983 0 0 1-1.747-1.121 4.9 4.9 0 0 1-1.127-1.787 6.8 6.8 0 0 1-.393-2.389zm15.778 4.63a.756.756 0 0 1-.259.666 1.229 1.229 0 0 1-.71.18 1.175 1.175 0 0 1-.7-.18.773.773 0 0 1-.248-.666v-9.26a.751.751 0 0 1 .225-.634 1.121 1.121 0 0 1 .676-.169 1.175 1.175 0 0 1 .687.169.732.732 0 0 1 .237.634v.994a3.617 3.617 0 0 1 .857-.994 4.769 4.769 0 0 1 1.183-.7A4.639 4.639 0 0 1 38.949 41a4.327 4.327 0 0 1 2.885.93 3.523 3.523 0 0 1 1.1 2.854v6.6q0 .74-.924.74-.992 0-.992-.74v-6.156a2.881 2.881 0 0 0-.552-1.9 2.508 2.508 0 0 0-1.995-.655 2.935 2.935 0 0 0-1.51.37A3.093 3.093 0 0 0 35.94 44a4.361 4.361 0 0 0-.586 1.321 5.682 5.682 0 0 0-.192 1.448zm16.026-8.732a3.571 3.571 0 0 0-1.375.243 2.966 2.966 0 0 0-.992.655 3.078 3.078 0 0 0-.642.973 4.175 4.175 0 0 0-.3 1.173h6.559a4.714 4.714 0 0 0-.282-1.152 2.873 2.873 0 0 0-.609-.973 2.969 2.969 0 0 0-.98-.666 3.44 3.44 0 0 0-1.378-.253zm5.184 3.869q0 .761-.924.761h-7.663a3.615 3.615 0 0 0 .913 2.643 3.452 3.452 0 0 0 2.581.93 3.669 3.669 0 0 0 1.138-.159 3.453 3.453 0 0 0 .823-.381 2.941 2.941 0 0 0 .552-.455q.214-.233.349-.4a1.479 1.479 0 0 1 .3-.317.751.751 0 0 1 .44-.106 1.157 1.157 0 0 1 .62.19.577.577 0 0 1 .3.507 1.265 1.265 0 0 1-.248.655 5.573 5.573 0 0 1-.53.645 4.152 4.152 0 0 1-.834.666 4.927 4.927 0 0 1-1.228.529 6.681 6.681 0 0 1-3.978-.2 4.946 4.946 0 0 1-1.747-1.163 5.075 5.075 0 0 1-1.1-1.8 7.089 7.089 0 0 1 0-4.6 5.179 5.179 0 0 1 1.093-1.786 4.877 4.877 0 0 1 1.713-1.163A5.849 5.849 0 0 1 51.189 41a5.659 5.659 0 0 1 2.231.412 4.518 4.518 0 0 1 1.623 1.142 4.925 4.925 0 0 1 .992 1.723 6.586 6.586 0 0 1 .338 2.135zm5.658 9.493a1.448 1.448 0 0 1-.338.444.839.839 0 0 1-.541.148 1.066 1.066 0 0 1-.654-.2.658.658 0 0 1-.27-.56 1.167 1.167 0 0 1 .034-.254 1.521 1.521 0 0 1 .147-.359l1.645-3.467-3.945-8.922q-.09-.211-.18-.391a.776.776 0 0 1-.09-.349.643.643 0 0 1 .349-.571 1.473 1.473 0 0 1 .778-.211.815.815 0 0 1 .766.592l3.358 7.738 3.539-7.78a1.15 1.15 0 0 1 .293-.423.664.664 0 0 1 .428-.127 1.491 1.491 0 0 1 .744.19.6.6 0 0 1 .338.55.824.824 0 0 1-.079.328q-.079.18-.169.37z" transform="translate(0 -41)"/>
            </g>
        </g>
    </g>
</svg>
