<svg width="95" height="57" viewBox="0 0 95 57" fill="none" xmlns="http://www.w3.org/2000/svg">
<rect width="95" height="57" fill="#E5E5E5"/>
<g clip-path="url(#clip0)">
<rect width="95" height="57" fill="white"/>
<path d="M26.0234 31.1836C20.2344 29.5195 16.0156 27.4805 13.3672 25.0664C10.7422 22.6289 9.42969 19.6289 9.42969 16.0664C9.42969 12.0352 11.0352 8.70703 14.2461 6.08203C17.4805 3.43359 21.6758 2.10938 26.832 2.10938C30.3477 2.10938 33.4766 2.78906 36.2188 4.14844C38.9844 5.50781 41.1172 7.38281 42.6172 9.77344C44.1406 12.1641 44.9023 14.7773 44.9023 17.6133H38.1172C38.1172 14.5195 37.1328 12.0938 35.1641 10.3359C33.1953 8.55469 30.418 7.66406 26.832 7.66406C23.5039 7.66406 20.9023 8.40234 19.0273 9.87891C17.1758 11.332 16.25 13.3594 16.25 15.9609C16.25 18.0469 17.1289 19.8164 18.8867 21.2695C20.668 22.6992 23.6797 24.0117 27.9219 25.207C32.1875 26.4023 35.5156 27.7266 37.9062 29.1797C40.3203 30.6094 42.1016 32.2852 43.25 34.207C44.4219 36.1289 45.0078 38.3906 45.0078 40.9922C45.0078 45.1406 43.3906 48.4688 40.1562 50.9766C36.9219 53.4609 32.5977 54.7031 27.1836 54.7031C23.668 54.7031 20.3867 54.0352 17.3398 52.6992C14.293 51.3398 11.9375 49.4883 10.2734 47.1445C8.63281 44.8008 7.8125 42.1406 7.8125 39.1641H14.5977C14.5977 42.2578 15.7344 44.707 18.0078 46.5117C20.3047 48.293 23.3633 49.1836 27.1836 49.1836C30.7461 49.1836 33.4766 48.457 35.375 47.0039C37.2734 45.5508 38.2227 43.5703 38.2227 41.0625C38.2227 38.5547 37.3438 36.6211 35.5859 35.2617C33.8281 33.8789 30.6406 32.5195 26.0234 31.1836Z" fill="#8075FF"/>
<path d="M82.207 40.6406H60.7617L55.9453 54H48.9844L68.5312 2.8125H74.4375L94.0195 54H87.0938L82.207 40.6406ZM62.8008 35.0859H80.2031L71.4844 11.1445L62.8008 35.0859Z" fill="#8075FF"/>
</g>
<defs>
<clipPath id="clip0">
<rect width="95" height="57" fill="white"/>
</clipPath>
</defs>
</svg>
