<svg xmlns="http://www.w3.org/2000/svg"  id="logo-primary_svg__Layer_1" viewBox="0 0 763.18 145.97" width="75" color="gray" class="sc-cHGsZl gwLbJP Logostyle__LogoRegular-e6feqb-0 bBwvyn"><defs><style>.logo-primary_svg__cls-1{fill:#333332}</style></defs><path class="logo-primary_svg__cls-1" d="M802.54 229.23v51A48.66 48.66 0 01767.05 327v8.77h-26.18V327a48.65 48.65 0 01-35.49-46.78v-51h25.94v51a22.56 22.56 0 0045.11 0v-51z" transform="translate(-39.35 -224.66)"/><path class="logo-primary_svg__cls-1" d="M701.35 119.79h26.17v26.17h-26.17z"/><path class="logo-primary_svg__cls-1" d="M643.64 302.71c-14.1 0-26.12-11.74-26.12-25.86a25.86 25.86 0 0126.12-26.12 26.21 26.21 0 0126.11 25.17v1a25.86 25.86 0 01-26.13 25.86m51.81-26.81a51.9 51.9 0 10-26.16 45.89v4.31h26.17V275.9" transform="translate(-39.35 -224.66)"/><path class="logo-primary_svg__cls-1" d="M110.77 119.8h26.17v26.17h-26.17z"/><path class="logo-primary_svg__cls-1" d="M201.93 302.63a26 26 0 1126.13-25.86c0 14.11-12 25.86-26.13 25.86m0-77.89a52 52 0 00-51.81 51.9v59.12h26.17v-14.05a51.9 51.9 0 1025.64-97" transform="translate(-39.35 -224.66)"/><path class="logo-primary_svg__cls-1" d="M440.83 119.8H467v26.17h-26.17z"/><path class="logo-primary_svg__cls-1" d="M532 302.63a26 26 0 1126.12-25.86c0 14.11-12 25.86-26.12 25.86m0-77.89a52 52 0 00-51.81 51.9v59.12h26.16v-14.05a51.9 51.9 0 1025.65-97m-414.67 52.02a26 26 0 11-26-26 26.07 26.07 0 0126 26m26 0a52 52 0 10-52 52 52.15 52.15 0 0052-52m278.4-51.99a48.67 48.67 0 00-48.62 48.62V326h26.13v-52.64a22.58 22.58 0 0145.16 0V326h26v-52.64a48.67 48.67 0 00-48.62-48.62m-132.59 39.72l.36-.64a26.6 26.6 0 0146.66 0l.36.64zm74.14-.32a52 52 0 10-50.44 64.49A51.31 51.31 0 00344.32 318l-18.21-18.21a26.53 26.53 0 01-35.49-8.5l-.44-.68h72.76c1.23-4.48 2.92-16.7.39-26.42" transform="translate(-39.35 -224.66)"/></svg>